<svg xmlns="http://www.w3.org/2000/svg" xmlns:xlink="http://www.w3.org/1999/xlink" viewBox="0,0,256,256" width="50px" height="50px" fill-rule="nonzero"><g fill="#939393" fill-rule="nonzero" stroke="none" stroke-width="1" stroke-linecap="butt" stroke-linejoin="miter" stroke-miterlimit="10" stroke-dasharray="" stroke-dashoffset="0" font-family="none" font-weight="none" font-size="none" text-anchor="none" style="mix-blend-mode: normal"><g transform="scale(5.12,5.12)"><path d="M20,3c-1.64453,0 -3,1.35547 -3,3v3h-14c-1.64453,0 -3,1.35547 -3,3v14.8125c-0.00781,0.0625 -0.00781,0.125 0,0.1875v17c0,1.64453 1.35547,3 3,3h44c1.64453,0 3,-1.35547 3,-3v-32c0,-1.64453 -1.35547,-3 -3,-3h-14v-3c0,-1.64453 -1.35547,-3 -3,-3zM20,5h10c0.5625,0 1,0.4375 1,1v3h-12v-3c0,-0.5625 0.4375,-1 1,-1zM3,11h44c0.5625,0 1,0.4375 1,1v14.84375c0,0.03125 0,0.0625 0,0.09375v0.0625c0,0.5625 -0.4375,1 -1,1h-44c-0.5625,0 -1,-0.4375 -1,-1c0.00781,-0.0625 0.00781,-0.125 0,-0.1875v-14.8125c0,-0.5625 0.4375,-1 1,-1zM25,22c-1.10547,0 -2,0.89453 -2,2c0,1.10547 0.89453,2 2,2c1.10547,0 2,-0.89453 2,-2c0,-1.10547 -0.89453,-2 -2,-2zM2,29.8125c0.31641,0.11328 0.64844,0.1875 1,0.1875h44c0.35156,0 0.68359,-0.07422 1,-0.1875v14.1875c0,0.5625 -0.4375,1 -1,1h-44c-0.5625,0 -1,-0.4375 -1,-1z"></path></g></g></svg>